<?xml version="1.0" encoding="utf-8"?>
<!-- Generator: Adobe Illustrator 27.6.1, SVG Export Plug-In . SVG Version: 6.00 Build 0)  -->
<svg version="1.1" id="Layer_1" xmlns="http://www.w3.org/2000/svg" xmlns:xlink="http://www.w3.org/1999/xlink" x="0px" y="0px"
	 viewBox="0 0 116.3 105.1" style="enable-background:new 0 0 116.3 105.1;" xml:space="preserve">
<style type="text/css">
	.st0{fill:#FFFFFF;stroke:#231F20;stroke-width:2;stroke-linecap:round;stroke-linejoin:round;stroke-miterlimit:10;}
	.st1{fill:none;stroke:#231F20;stroke-width:2;stroke-linecap:round;stroke-linejoin:round;stroke-miterlimit:10;}
	.st2{fill:none;stroke:#231F20;stroke-width:5;stroke-linecap:round;stroke-linejoin:round;stroke-miterlimit:10;}
	.st3{fill:#FFFFFF;stroke:#231F20;stroke-width:5;stroke-linecap:round;stroke-linejoin:round;stroke-miterlimit:10;}
	.st4{fill:#FFFFFF;}
	.st5{fill:#231F20;}
	.st6{fill:none;stroke:#221F20;stroke-width:6;stroke-linecap:round;stroke-linejoin:round;stroke-miterlimit:10;}
	.st7{fill:#FFFFFF;stroke:#221F20;stroke-width:5;stroke-linecap:round;stroke-linejoin:round;stroke-miterlimit:10;}
	.st8{fill:none;stroke:#221F20;stroke-width:5;stroke-linecap:round;stroke-linejoin:round;stroke-miterlimit:10;}
	.st9{fill:none;stroke:#221F20;stroke-width:4.899;stroke-linecap:round;stroke-linejoin:round;stroke-miterlimit:10;}
	.st10{fill:#221F20;}
	.st11{fill:none;stroke:#221F20;stroke-width:2;stroke-linecap:round;stroke-linejoin:round;stroke-miterlimit:10;}
	.st12{fill:#BEBFBF;}
	.st13{fill:#CDA24F;}
	.st14{fill:#B771C0;}
</style>
<g>
	<polygon class="st1" points="7.7,25.3 40.7,3.4 40.7,80.3 7.7,102.2 	"/>
	<polygon class="st1" points="73.6,25.3 106.6,3.4 106.6,80.3 73.6,102.2 	"/>
	<line class="st1" x1="40.7" y1="3.4" x2="73.6" y2="25.3"/>
	<line class="st1" x1="73.6" y1="102.2" x2="40.7" y2="80.3"/>
	<line class="st1" x1="96.7" y1="14.4" x2="113.2" y2="14.4"/>
	<line class="st1" x1="96.7" y1="19.8" x2="113.2" y2="19.8"/>
	<line class="st1" x1="96.7" y1="25.3" x2="113.2" y2="25.3"/>
	<path class="st14" d="M69.3,30.8v-22h18.5c1.4,1.4,2.1,2.1,3.5,3.5v18.5H69.3z"/>
	<path class="st11" d="M69.3,30.8v-22h18.5c1.4,1.4,2.1,2.1,3.5,3.5v18.5H69.3z"/>
	<path class="st4" d="M80.3,27.3c-2.9,0-5.2-2.3-5.2-5.2c0-2.9,2.3-5.2,5.2-5.2c2.9,0,5.2,2.3,5.2,5.2C85.5,25,83.2,27.3,80.3,27.3"
		/>
	<circle class="st11" cx="80.3" cy="22.1" r="5.2"/>
	<rect x="75.2" y="8.9" class="st4" width="6.2" height="4.7"/>
	<rect x="75.2" y="8.9" class="st11" width="6.2" height="4.7"/>
	<line class="st11" x1="85.5" y1="8.9" x2="85.5" y2="13.6"/>
	<line class="st1" x1="35.2" y1="36.3" x2="57.2" y2="36.3"/>
	<line class="st1" x1="35.2" y1="41.8" x2="57.2" y2="41.8"/>
	<line class="st1" x1="35.2" y1="47.3" x2="51.7" y2="47.3"/>
	<rect x="2.7" y="31.3" class="st13" width="27.1" height="20.9"/>
	<rect x="2.7" y="31.3" class="st11" width="27.1" height="20.9"/>
	<rect x="6.3" y="37.9" class="st4" width="20.1" height="10.9"/>
	<rect x="6.3" y="37.9" class="st11" width="20.1" height="10.9"/>
	<line class="st11" x1="13.5" y1="37.9" x2="13.5" y2="48.7"/>
	<line class="st11" x1="6.3" y1="34.6" x2="8.8" y2="34.6"/>
	<line class="st11" x1="12.3" y1="34.6" x2="14.8" y2="34.6"/>
	<line class="st11" x1="25.1" y1="34.6" x2="26.4" y2="34.6"/>
	<line class="st11" x1="6.3" y1="41.3" x2="26.4" y2="41.3"/>
	<line class="st1" x1="70.8" y1="80.3" x2="92.7" y2="80.3"/>
	<line class="st1" x1="70.8" y1="85.8" x2="87.3" y2="85.8"/>
	<line class="st1" x1="70.8" y1="91.3" x2="81.8" y2="91.3"/>
	<path class="st12" d="M65.4,97.7H45.6V80.3c3.2-3.2,5-5,8.1-8.1h11.7V97.7z"/>
	<path class="st11" d="M65.4,97.7H45.6V80.3c3.2-3.2,5-5,8.1-8.1h11.7V97.7z"/>
	<line class="st11" x1="49.8" y1="83.4" x2="61.2" y2="83.4"/>
	<line class="st11" x1="49.8" y1="78.7" x2="61.2" y2="78.7"/>
	<line class="st11" x1="49.8" y1="88.1" x2="61.2" y2="88.1"/>
	<line class="st11" x1="49.8" y1="92.9" x2="61.2" y2="92.9"/>
	<polygon class="st4" points="45.6,80.3 53.7,80.3 53.7,72.1 	"/>
	<polygon class="st11" points="45.6,80.3 53.7,80.3 53.7,72.1 	"/>
</g>
</svg>
