<?xml version="1.0" encoding="utf-8"?>
<!-- Generator: Adobe Illustrator 27.6.1, SVG Export Plug-In . SVG Version: 6.00 Build 0)  -->
<svg version="1.1" id="Layer_1" xmlns="http://www.w3.org/2000/svg" xmlns:xlink="http://www.w3.org/1999/xlink" x="0px" y="0px"
	 viewBox="0 0 126.4 114.2" style="enable-background:new 0 0 126.4 114.2;" xml:space="preserve">
<style type="text/css">
	.st0{fill:#FFFFFF;}
	.st1{fill:none;stroke:#231F20;stroke-width:2;stroke-linecap:round;stroke-linejoin:round;stroke-miterlimit:10;}
	.st2{fill:#B771C0;}
	.st3{fill:none;stroke:#221F20;stroke-width:2;stroke-linecap:round;stroke-linejoin:round;stroke-miterlimit:10;}
	.st4{fill:#CDA24F;}
	.st5{fill:#BEBFBF;}
</style>
<rect class="st0" width="126.4" height="114.2"/>
<g>
	<polygon class="st1" points="12.7,29.9 45.7,8 45.7,84.9 12.7,106.8 	"/>
	<polygon class="st1" points="78.6,29.9 111.6,8 111.6,84.9 78.6,106.8 	"/>
	<line class="st1" x1="45.7" y1="8" x2="78.6" y2="29.9"/>
	<line class="st1" x1="78.6" y1="106.8" x2="45.7" y2="84.9"/>
	<line class="st1" x1="101.7" y1="19" x2="118.2" y2="19"/>
	<line class="st1" x1="101.7" y1="24.4" x2="118.2" y2="24.4"/>
	<line class="st1" x1="101.7" y1="29.9" x2="118.2" y2="29.9"/>
	<path class="st2" d="M74.3,35.4v-22h18.5c1.4,1.4,2.1,2.1,3.5,3.5v18.5H74.3z"/>
	<path class="st3" d="M74.3,35.4v-22h18.5c1.4,1.4,2.1,2.1,3.5,3.5v18.5H74.3z"/>
	<path class="st0" d="M85.3,31.9c-2.9,0-5.2-2.3-5.2-5.2s2.3-5.2,5.2-5.2c2.9,0,5.2,2.3,5.2,5.2S88.2,31.9,85.3,31.9"/>
	<circle class="st3" cx="85.3" cy="26.7" r="5.2"/>
	<rect x="80.2" y="13.5" class="st0" width="6.2" height="4.7"/>
	<rect x="80.2" y="13.5" class="st3" width="6.2" height="4.7"/>
	<line class="st3" x1="90.5" y1="13.5" x2="90.5" y2="18.2"/>
	<line class="st1" x1="40.2" y1="40.9" x2="62.2" y2="40.9"/>
	<line class="st1" x1="40.2" y1="46.4" x2="62.2" y2="46.4"/>
	<line class="st1" x1="40.2" y1="51.9" x2="56.7" y2="51.9"/>
	<rect x="7.7" y="35.9" class="st4" width="27.1" height="20.9"/>
	<rect x="7.7" y="35.9" class="st3" width="27.1" height="20.9"/>
	<rect x="11.3" y="42.5" class="st0" width="20.1" height="10.9"/>
	<rect x="11.3" y="42.5" class="st3" width="20.1" height="10.9"/>
	<line class="st3" x1="18.5" y1="42.5" x2="18.5" y2="53.3"/>
	<line class="st3" x1="11.3" y1="39.2" x2="13.8" y2="39.2"/>
	<line class="st3" x1="17.3" y1="39.2" x2="19.8" y2="39.2"/>
	<line class="st3" x1="30.1" y1="39.2" x2="31.4" y2="39.2"/>
	<line class="st3" x1="11.3" y1="45.9" x2="31.4" y2="45.9"/>
	<line class="st1" x1="75.8" y1="84.9" x2="97.7" y2="84.9"/>
	<line class="st1" x1="75.8" y1="90.4" x2="92.3" y2="90.4"/>
	<line class="st1" x1="75.8" y1="95.9" x2="86.8" y2="95.9"/>
	<path class="st5" d="M70.4,102.3H50.6V84.9c3.2-3.2,5-5,8.1-8.1h11.7C70.4,76.8,70.4,102.3,70.4,102.3z"/>
	<path class="st3" d="M70.4,102.3H50.6V84.9c3.2-3.2,5-5,8.1-8.1h11.7C70.4,76.8,70.4,102.3,70.4,102.3z"/>
	<line class="st3" x1="54.8" y1="88" x2="66.2" y2="88"/>
	<line class="st3" x1="54.8" y1="83.3" x2="66.2" y2="83.3"/>
	<line class="st3" x1="54.8" y1="92.7" x2="66.2" y2="92.7"/>
	<line class="st3" x1="54.8" y1="97.5" x2="66.2" y2="97.5"/>
	<polygon class="st0" points="50.6,84.9 58.7,84.9 58.7,76.7 	"/>
	<polygon class="st3" points="50.6,84.9 58.7,84.9 58.7,76.7 	"/>
</g>
</svg>
