<?xml version="1.0" encoding="utf-8"?>
<!-- Generator: Adobe Illustrator 27.6.1, SVG Export Plug-In . SVG Version: 6.00 Build 0)  -->
<svg version="1.1" id="Layer_1" xmlns="http://www.w3.org/2000/svg" xmlns:xlink="http://www.w3.org/1999/xlink" x="0px" y="0px"
	 viewBox="0 0 134.1 90.4" style="enable-background:new 0 0 134.1 90.4;" xml:space="preserve">
<style type="text/css">
	.st0{fill:#FFFFFF;stroke:#231F20;stroke-width:2;stroke-linecap:round;stroke-linejoin:round;stroke-miterlimit:10;}
	.st1{fill:none;stroke:#231F20;stroke-width:2;stroke-linecap:round;stroke-linejoin:round;stroke-miterlimit:10;}
	.st2{fill:none;stroke:#231F20;stroke-width:5;stroke-linecap:round;stroke-linejoin:round;stroke-miterlimit:10;}
	.st3{fill:#FFFFFF;stroke:#231F20;stroke-width:5;stroke-linecap:round;stroke-linejoin:round;stroke-miterlimit:10;}
	.st4{fill:#FFFFFF;}
	.st5{fill:#231F20;}
	.st6{fill:none;stroke:#221F20;stroke-width:6;stroke-linecap:round;stroke-linejoin:round;stroke-miterlimit:10;}
	.st7{fill:#FFFFFF;stroke:#221F20;stroke-width:5;stroke-linecap:round;stroke-linejoin:round;stroke-miterlimit:10;}
	.st8{fill:none;stroke:#221F20;stroke-width:5;stroke-linecap:round;stroke-linejoin:round;stroke-miterlimit:10;}
	.st9{fill:none;stroke:#221F20;stroke-width:4.899;stroke-linecap:round;stroke-linejoin:round;stroke-miterlimit:10;}
	.st10{fill:#221F20;}
	.st11{fill:none;stroke:#221F20;stroke-width:2;stroke-linecap:round;stroke-linejoin:round;stroke-miterlimit:10;}
	.st12{fill:#BEBFBF;}
	.st13{fill:#CDA24F;}
	.st14{fill:#B771C0;}
</style>
<g>
	<rect x="46.6" y="17.1" class="st4" width="81.8" height="68.2"/>
	<rect x="46.6" y="17.1" class="st1" width="81.8" height="68.2"/>
	<rect x="46.8" y="17.1" class="st14" width="81.7" height="8.8"/>
	<rect x="46.8" y="17.1" class="st11" width="81.7" height="8.8"/>
	<line class="st1" x1="128.4" y1="25.9" x2="46.6" y2="25.9"/>
	<line class="st1" x1="51.1" y1="21.5" x2="79.4" y2="21.5"/>
	<line class="st1" x1="119.6" y1="21.5" x2="124" y2="21.5"/>
	<line class="st1" x1="110.8" y1="21.5" x2="115.2" y2="21.5"/>
	<line class="st1" x1="102" y1="21.5" x2="106.4" y2="21.5"/>
	<path class="st12" d="M117.4,30.8l-0.2,0.3c-1.3,1.6-3.3,2.8-5.8,3.5l-0.7,0.2l0,2.6c0.1,4.2,2.4,8.1,6.6,11.1
		c4.2-2.9,6.6-6.9,6.6-11.1l0-2.6l-0.7-0.2c-2.4-0.7-4.4-1.9-5.8-3.5L117.4,30.8z"/>
	<path class="st11" d="M117.4,30.8l-0.2,0.3c-1.3,1.6-3.3,2.8-5.8,3.5l-0.7,0.2l0,2.6c0.1,4.2,2.4,8.1,6.6,11.1
		c4.2-2.9,6.6-6.9,6.6-11.1l0-2.6l-0.7-0.2c-2.4-0.7-4.4-1.9-5.8-3.5L117.4,30.8z"/>
	<line class="st1" x1="106.5" y1="35.2" x2="91.4" y2="35.2"/>
	<line class="st1" x1="106.5" y1="39.6" x2="91.4" y2="39.6"/>
	<line class="st1" x1="102.1" y1="44" x2="91.4" y2="44"/>
	<path class="st12" d="M78.4,30.8l-0.2,0.3c-1.3,1.6-3.3,2.8-5.8,3.5l-0.7,0.2l0,2.6c0.1,4.2,2.4,8.1,6.6,11.1
		c4.2-2.9,6.6-6.9,6.6-11.1l0-2.6l-0.7-0.2c-2.4-0.7-4.4-1.9-5.8-3.5L78.4,30.8z"/>
	<path class="st11" d="M78.4,30.8l-0.2,0.3c-1.3,1.6-3.3,2.8-5.8,3.5l-0.7,0.2l0,2.6c0.1,4.2,2.4,8.1,6.6,11.1
		c4.2-2.9,6.6-6.9,6.6-11.1l0-2.6l-0.7-0.2c-2.4-0.7-4.4-1.9-5.8-3.5L78.4,30.8z"/>
	<line class="st1" x1="67.4" y1="35.2" x2="51.1" y2="35.2"/>
	<line class="st1" x1="67.4" y1="39.6" x2="51.1" y2="39.6"/>
	<line class="st1" x1="63" y1="44" x2="51" y2="44"/>
	<path class="st4" d="M59.8,50.1C54,56,44.5,56,38.7,50.1s-5.8-15.3,0-21.1c5.8-5.8,15.3-5.8,21.1,0C65.6,34.9,65.6,44.3,59.8,50.1"
		/>
	<circle class="st1" cx="49.2" cy="39.6" r="14.9"/>
	<path class="st12" d="M78.4,59.3l-0.2,0.3c-1.3,1.6-3.3,2.8-5.8,3.5l-0.7,0.2l0,2.6C71.8,70,74.2,74,78.4,77
		C82.6,74,84.9,70,85,65.9l0-2.6l-0.7-0.2c-2.4-0.7-4.4-1.9-5.8-3.5L78.4,59.3z"/>
	<path class="st11" d="M78.4,59.3l-0.2,0.3c-1.3,1.6-3.3,2.8-5.8,3.5l-0.7,0.2l0,2.6C71.8,70,74.2,74,78.4,77
		C82.6,74,84.9,70,85,65.9l0-2.6l-0.7-0.2c-2.4-0.7-4.4-1.9-5.8-3.5L78.4,59.3z"/>
	<line class="st1" x1="67.4" y1="63.7" x2="51.1" y2="63.7"/>
	<line class="st1" x1="67.4" y1="68.2" x2="51.1" y2="68.2"/>
	<line class="st1" x1="63" y1="72.6" x2="51" y2="72.6"/>
	<path class="st12" d="M117.4,59.3l-0.2,0.3c-1.3,1.6-3.3,2.8-5.8,3.5l-0.7,0.2l0,2.6c0.1,4.2,2.4,8.1,6.6,11.1
		c4.2-2.9,6.6-6.9,6.6-11.1l0-2.6l-0.7-0.2c-2.4-0.7-4.4-1.9-5.8-3.5L117.4,59.3z"/>
	<path class="st11" d="M117.4,59.3l-0.2,0.3c-1.3,1.6-3.3,2.8-5.8,3.5l-0.7,0.2l0,2.6c0.1,4.2,2.4,8.1,6.6,11.1
		c4.2-2.9,6.6-6.9,6.6-11.1l0-2.6l-0.7-0.2c-2.4-0.7-4.4-1.9-5.8-3.5L117.4,59.3z"/>
	<line class="st1" x1="106.5" y1="63.7" x2="91.4" y2="63.7"/>
	<line class="st1" x1="106.5" y1="68.2" x2="91.4" y2="68.2"/>
	<line class="st1" x1="102.1" y1="72.6" x2="91.4" y2="72.6"/>
	
		<rect x="12.3" y="58.8" transform="matrix(0.7071 -0.7071 0.7071 0.7071 -35.505 37.3013)" class="st13" width="29.9" height="5.4"/>
	
		<rect x="12.3" y="58.8" transform="matrix(0.7071 -0.7071 0.7071 0.7071 -35.505 37.3013)" class="st11" width="29.9" height="5.4"/>
	<path class="st13" d="M49.2,20.7c-10.4,0-18.9,8.5-18.9,18.9s8.5,18.9,18.9,18.9S68.1,50,68.1,39.6S59.6,20.7,49.2,20.7 M59.7,50.1
		c-5.8,5.8-15.3,5.8-21.1,0s-5.8-15.3,0-21.1c5.8-5.8,15.3-5.8,21.1,0C65.5,34.9,65.5,44.3,59.7,50.1"/>
	<path class="st11" d="M49.2,20.7c-10.4,0-18.9,8.5-18.9,18.9s8.5,18.9,18.9,18.9S68.1,50,68.1,39.6S59.6,20.7,49.2,20.7z
		 M59.7,50.1c-5.8,5.8-15.3,5.8-21.1,0c-5.8-5.8-5.8-15.3,0-21.1s15.3-5.8,21.1,0S65.5,44.3,59.7,50.1z"/>
	<line class="st1" x1="57.4" y1="31.9" x2="42.3" y2="31.9"/>
	<line class="st1" x1="64.1" y1="39.6" x2="42.3" y2="39.6"/>
	<line class="st1" x1="61.3" y1="47.4" x2="42.3" y2="47.4"/>
	<path class="st4" d="M20.1,3.5c7,0,13.2,3.8,17.6,9.8c-4.4,6-10.7,9.8-17.6,9.8S6.8,19.3,2.4,13.3C6.8,7.3,13.1,3.5,20.1,3.5"/>
	<path class="st1" d="M20.1,3.5c7,0,13.2,3.8,17.6,9.8c-4.4,6-10.7,9.8-17.6,9.8S6.8,19.3,2.4,13.3C6.8,7.3,13.1,3.5,20.1,3.5z"/>
	<path class="st1" d="M13.2,13.3c0,4.6,3.7,8.3,8.3,8.3c4.6,0,8.3-3.7,8.3-8.3c0-4.6-3.7-8.3-8.3-8.3C17,5,13.2,8.7,13.2,13.3z"/>
	<path class="st5" d="M18.8,14.4c0,2.1,1.7,3.7,3.7,3.7s3.7-1.7,3.7-3.7s-1.7-3.7-3.7-3.7S18.8,12.3,18.8,14.4"/>
</g>
</svg>
