<?xml version="1.0" encoding="utf-8"?>
<!-- Generator: Adobe Illustrator 27.6.1, SVG Export Plug-In . SVG Version: 6.00 Build 0)  -->
<svg version="1.1" id="Layer_1" xmlns="http://www.w3.org/2000/svg" xmlns:xlink="http://www.w3.org/1999/xlink" x="0px" y="0px"
	 viewBox="0 0 96.8 110.1" style="enable-background:new 0 0 96.8 110.1;" xml:space="preserve">
<style type="text/css">
	.st0{fill:#FFFFFF;stroke:#231F20;stroke-width:2;stroke-linecap:round;stroke-linejoin:round;stroke-miterlimit:10;}
	.st1{fill:none;stroke:#231F20;stroke-width:2;stroke-linecap:round;stroke-linejoin:round;stroke-miterlimit:10;}
	.st2{fill:none;stroke:#231F20;stroke-width:5;stroke-linecap:round;stroke-linejoin:round;stroke-miterlimit:10;}
	.st3{fill:#FFFFFF;stroke:#231F20;stroke-width:5;stroke-linecap:round;stroke-linejoin:round;stroke-miterlimit:10;}
	.st4{fill:#FFFFFF;}
	.st5{fill:#231F20;}
	.st6{fill:none;stroke:#221F20;stroke-width:6;stroke-linecap:round;stroke-linejoin:round;stroke-miterlimit:10;}
	.st7{fill:#FFFFFF;stroke:#221F20;stroke-width:5;stroke-linecap:round;stroke-linejoin:round;stroke-miterlimit:10;}
	.st8{fill:none;stroke:#221F20;stroke-width:5;stroke-linecap:round;stroke-linejoin:round;stroke-miterlimit:10;}
	.st9{fill:none;stroke:#221F20;stroke-width:4.899;stroke-linecap:round;stroke-linejoin:round;stroke-miterlimit:10;}
	.st10{fill:#221F20;}
	.st11{fill:none;stroke:#221F20;stroke-width:2;stroke-linecap:round;stroke-linejoin:round;stroke-miterlimit:10;}
	.st12{fill:#BEBFBF;}
	.st13{fill:#CDA24F;}
	.st14{fill:#B771C0;}
</style>
<g>
	<path class="st4" d="M15.5,57.2c0,2.6-2.1,4.7-4.7,4.7S6,59.8,6,57.2s2.1-4.7,4.7-4.7S15.5,54.6,15.5,57.2"/>
	<circle class="st11" cx="10.8" cy="57.2" r="4.7"/>
	<polygon class="st4" points="2.9,65.1 18.7,65.1 10.8,90.4 	"/>
	<polygon class="st11" points="2.9,65.1 18.7,65.1 10.8,90.4 	"/>
	<path class="st4" d="M52.8,73c0,2.6-2.1,4.7-4.7,4.7s-4.7-2.1-4.7-4.7s2.1-4.7,4.7-4.7S52.8,70.4,52.8,73"/>
	<circle class="st11" cx="48.1" cy="73" r="4.7"/>
	<polygon class="st4" points="40.2,80.9 56,80.9 48.1,106.2 	"/>
	<polygon class="st11" points="40.2,80.9 56,80.9 48.1,106.2 	"/>
	<path class="st4" d="M90.2,57.2c0,2.6-2.1,4.7-4.7,4.7s-4.7-2.1-4.7-4.7s2.1-4.7,4.7-4.7S90.2,54.6,90.2,57.2"/>
	<circle class="st11" cx="85.4" cy="57.2" r="4.7"/>
	<polygon class="st4" points="77.6,65.1 93.3,65.1 85.4,90.4 	"/>
	<polygon class="st11" points="77.6,65.1 93.3,65.1 85.4,90.4 	"/>
	<rect x="16.1" y="3.5" class="st12" width="56.7" height="34.3"/>
	<rect x="16.1" y="3.5" class="st11" width="56.7" height="34.3"/>
	<rect x="19.7" y="7" class="st12" width="56.7" height="34.3"/>
	<rect x="19.7" y="7" class="st11" width="56.7" height="34.3"/>
	<rect x="23.2" y="10.6" class="st4" width="56.7" height="34.3"/>
	<rect x="23.2" y="10.6" class="st11" width="56.7" height="34.3"/>
	<rect x="28.4" y="20.1" class="st11" width="28.2" height="19.6"/>
	<line class="st11" x1="28.4" y1="15.5" x2="32" y2="15.5"/>
	<line class="st11" x1="37.1" y1="15.5" x2="40.7" y2="15.5"/>
	<line class="st11" x1="73.2" y1="15.5" x2="75" y2="15.5"/>
	<path class="st13" d="M68.1,23.2l0.2,0.2c1,1.2,2.5,2.1,4.4,2.6l0.5,0.1l0,2c0,3.2-1.9,6.2-5,8.4c-3.2-2.2-5-5.3-5-8.4l0-2l0.5-0.1
		c1.8-0.5,3.4-1.4,4.4-2.6L68.1,23.2z"/>
	<path class="st11" d="M68.1,23.2l0.2,0.2c1,1.2,2.5,2.1,4.4,2.6l0.5,0.1l0,2c0,3.2-1.9,6.2-5,8.4c-3.2-2.2-5-5.3-5-8.4l0-2l0.5-0.1
		c1.8-0.5,3.4-1.5,4.4-2.6L68.1,23.2z"/>
	<line class="st11" x1="48.1" y1="44.9" x2="48.1" y2="63"/>
	<polyline class="st11" points="22.5,56.1 40.6,56.1 40.6,44.9 	"/>
	<polyline class="st11" points="73.7,56.1 55.6,56.1 55.6,44.9 	"/>
	<polyline class="st11" points="25.8,59.3 22.5,56.1 25.8,52.8 	"/>
	<polyline class="st11" points="70.4,52.8 73.7,56.1 70.4,59.3 	"/>
	<polyline class="st11" points="51.4,59.8 48.1,63 44.9,59.8 	"/>
	<rect x="28.4" y="20.1" class="st14" width="5.7" height="19.6"/>
	<rect x="28.4" y="20.1" class="st11" width="5.7" height="19.6"/>
	<rect x="28.4" y="20.1" class="st14" width="28.2" height="5"/>
	<rect x="28.4" y="20.1" class="st11" width="28.2" height="5"/>
	<line class="st11" x1="34.1" y1="20.1" x2="34.1" y2="39.8"/>
</g>
</svg>
