<?xml version="1.0" encoding="utf-8"?>
<!-- Generator: Adobe Illustrator 27.6.1, SVG Export Plug-In . SVG Version: 6.00 Build 0)  -->
<svg version="1.1" id="Layer_1" xmlns="http://www.w3.org/2000/svg" xmlns:xlink="http://www.w3.org/1999/xlink" x="0px" y="0px"
	 viewBox="0 0 143 98.6" style="enable-background:new 0 0 143 98.6;" xml:space="preserve">
<style type="text/css">
	.st0{fill:#FFFFFF;}
	.st1{fill:none;stroke:#231F20;stroke-width:2;stroke-linecap:round;stroke-linejoin:round;stroke-miterlimit:10;}
	.st2{fill:#B771C0;}
	.st3{fill:none;stroke:#221F20;stroke-width:2;stroke-linecap:round;stroke-linejoin:round;stroke-miterlimit:10;}
	.st4{fill:#BEBFBF;}
	.st5{fill:#CDA24F;}
	.st6{fill:none;stroke:#221F20;stroke-width:2;stroke-linecap:round;stroke-linejoin:round;stroke-miterlimit:9.9999;}
	.st7{fill:#231F20;}
</style>
<rect class="st0" width="143" height="98.6"/>
<g>
	<rect x="51.1" y="21.2" class="st0" width="81.8" height="68.2"/>
	<rect x="51.1" y="21.2" class="st1" width="81.8" height="68.2"/>
	<rect x="51.3" y="21.2" class="st2" width="81.7" height="8.8"/>
	<rect x="51.3" y="21.2" class="st3" width="81.7" height="8.8"/>
	<line class="st1" x1="132.9" y1="30" x2="51.1" y2="30"/>
	<line class="st1" x1="55.6" y1="25.6" x2="83.9" y2="25.6"/>
	<line class="st1" x1="124.1" y1="25.6" x2="128.5" y2="25.6"/>
	<line class="st1" x1="115.3" y1="25.6" x2="119.7" y2="25.6"/>
	<line class="st1" x1="106.5" y1="25.6" x2="110.9" y2="25.6"/>
	<path class="st4" d="M121.9,34.9l-0.2,0.3c-1.3,1.6-3.3,2.8-5.8,3.5l-0.7,0.2v2.6c0.1,4.2,2.4,8.1,6.6,11.1
		c4.2-2.9,6.6-6.9,6.6-11.1v-2.6l-0.7-0.2c-2.4-0.7-4.4-1.9-5.8-3.5V34.9z"/>
	<path class="st3" d="M121.9,34.9l-0.2,0.3c-1.3,1.6-3.3,2.8-5.8,3.5l-0.7,0.2v2.6c0.1,4.2,2.4,8.1,6.6,11.1
		c4.2-2.9,6.6-6.9,6.6-11.1v-2.6l-0.7-0.2c-2.4-0.7-4.4-1.9-5.8-3.5V34.9z"/>
	<line class="st1" x1="111" y1="39.3" x2="95.9" y2="39.3"/>
	<line class="st1" x1="111" y1="43.7" x2="95.9" y2="43.7"/>
	<line class="st1" x1="106.6" y1="48.1" x2="95.9" y2="48.1"/>
	<path class="st4" d="M82.9,34.9l-0.2,0.3c-1.3,1.6-3.3,2.8-5.8,3.5l-0.7,0.2v2.6c0.1,4.2,2.4,8.1,6.6,11.1
		c4.2-2.9,6.6-6.9,6.6-11.1v-2.6l-0.7-0.2c-2.4-0.7-4.4-1.9-5.8-3.5V34.9z"/>
	<path class="st3" d="M82.9,34.9l-0.2,0.3c-1.3,1.6-3.3,2.8-5.8,3.5l-0.7,0.2v2.6c0.1,4.2,2.4,8.1,6.6,11.1
		c4.2-2.9,6.6-6.9,6.6-11.1v-2.6l-0.7-0.2c-2.4-0.7-4.4-1.9-5.8-3.5V34.9z"/>
	<line class="st1" x1="71.9" y1="39.3" x2="55.6" y2="39.3"/>
	<line class="st1" x1="71.9" y1="43.7" x2="55.6" y2="43.7"/>
	<line class="st1" x1="67.5" y1="48.1" x2="55.5" y2="48.1"/>
	<path class="st0" d="M64.3,54.2c-5.8,5.9-15.3,5.9-21.1,0s-5.8-15.3,0-21.1s15.3-5.8,21.1,0C70.1,39,70.1,48.4,64.3,54.2"/>
	<circle class="st1" cx="53.7" cy="43.7" r="14.9"/>
	<path class="st4" d="M82.9,63.4l-0.2,0.3c-1.3,1.6-3.3,2.8-5.8,3.5l-0.7,0.2V70c0.1,4.1,2.5,8.1,6.7,11.1c4.2-3,6.5-7,6.6-11.1
		v-2.6l-0.7-0.2c-2.4-0.7-4.4-1.9-5.8-3.5L82.9,63.4z"/>
	<path class="st3" d="M82.9,63.4l-0.2,0.3c-1.3,1.6-3.3,2.8-5.8,3.5l-0.7,0.2V70c0.1,4.1,2.5,8.1,6.7,11.1c4.2-3,6.5-7,6.6-11.1
		v-2.6l-0.7-0.2c-2.4-0.7-4.4-1.9-5.8-3.5L82.9,63.4z"/>
	<line class="st1" x1="71.9" y1="67.8" x2="55.6" y2="67.8"/>
	<line class="st1" x1="71.9" y1="72.3" x2="55.6" y2="72.3"/>
	<line class="st1" x1="67.5" y1="76.7" x2="55.5" y2="76.7"/>
	<path class="st4" d="M121.9,63.4l-0.2,0.3c-1.3,1.6-3.3,2.8-5.8,3.5l-0.7,0.2V70c0.1,4.2,2.4,8.1,6.6,11.1
		c4.2-2.9,6.6-6.9,6.6-11.1v-2.6l-0.7-0.2c-2.4-0.7-4.4-1.9-5.8-3.5V63.4z"/>
	<path class="st3" d="M121.9,63.4l-0.2,0.3c-1.3,1.6-3.3,2.8-5.8,3.5l-0.7,0.2V70c0.1,4.2,2.4,8.1,6.6,11.1
		c4.2-2.9,6.6-6.9,6.6-11.1v-2.6l-0.7-0.2c-2.4-0.7-4.4-1.9-5.8-3.5V63.4z"/>
	<line class="st1" x1="111" y1="67.8" x2="95.9" y2="67.8"/>
	<line class="st1" x1="111" y1="72.3" x2="95.9" y2="72.3"/>
	<line class="st1" x1="106.6" y1="76.7" x2="95.9" y2="76.7"/>
	
		<rect x="16.8" y="62.9" transform="matrix(0.7071 -0.7071 0.7071 0.7071 -37.0997 41.6463)" class="st5" width="29.9" height="5.4"/>
	
		<rect x="16.8" y="62.9" transform="matrix(0.7071 -0.7071 0.7071 0.7071 -37.0997 41.6463)" class="st6" width="29.9" height="5.4"/>
	<path class="st5" d="M53.7,24.8c-10.4,0-18.9,8.5-18.9,18.9s8.5,18.9,18.9,18.9s18.9-8.5,18.9-18.9S64.1,24.8,53.7,24.8 M64.2,54.2
		c-5.8,5.8-15.3,5.8-21.1,0s-5.8-15.3,0-21.1s15.3-5.8,21.1,0C70,39,70,48.4,64.2,54.2"/>
	<path class="st3" d="M53.7,24.8c-10.4,0-18.9,8.5-18.9,18.9s8.5,18.9,18.9,18.9s18.9-8.5,18.9-18.9S64.1,24.8,53.7,24.8z
		 M64.2,54.2c-5.8,5.8-15.3,5.8-21.1,0s-5.8-15.3,0-21.1s15.3-5.8,21.1,0S70,48.4,64.2,54.2z"/>
	<line class="st1" x1="61.9" y1="36" x2="46.8" y2="36"/>
	<line class="st1" x1="68.6" y1="43.7" x2="46.8" y2="43.7"/>
	<line class="st1" x1="65.8" y1="51.5" x2="46.8" y2="51.5"/>
	<path class="st0" d="M24.6,7.6c7,0,13.2,3.8,17.6,9.8c-4.4,6-10.7,9.8-17.6,9.8s-13.3-3.8-17.7-9.8C11.3,11.4,17.6,7.6,24.6,7.6"/>
	<path class="st1" d="M24.6,7.6c7,0,13.2,3.8,17.6,9.8c-4.4,6-10.7,9.8-17.6,9.8s-13.3-3.8-17.7-9.8C11.3,11.4,17.6,7.6,24.6,7.6z"
		/>
	<path class="st1" d="M17.7,17.4c0,4.6,3.7,8.3,8.3,8.3s8.3-3.7,8.3-8.3S30.6,9.1,26,9.1C21.5,9.1,17.7,12.8,17.7,17.4z"/>
	<path class="st7" d="M23.3,18.5c0,2.1,1.7,3.7,3.7,3.7s3.7-1.7,3.7-3.7S29,14.8,27,14.8S23.3,16.4,23.3,18.5"/>
</g>
</svg>
