<?xml version="1.0" encoding="utf-8"?>
<!-- Generator: Adobe Illustrator 27.6.1, SVG Export Plug-In . SVG Version: 6.00 Build 0)  -->
<svg version="1.1" id="Layer_1" xmlns="http://www.w3.org/2000/svg" xmlns:xlink="http://www.w3.org/1999/xlink" x="0px" y="0px"
	 viewBox="0 0 104.7 119.1" style="enable-background:new 0 0 104.7 119.1;" xml:space="preserve">
<style type="text/css">
	.st0{fill:#FFFFFF;}
	.st1{fill:none;stroke:#221F20;stroke-width:2;stroke-linecap:round;stroke-linejoin:round;stroke-miterlimit:10;}
	.st2{fill:#BEBFBF;}
	.st3{fill:#CDA24F;}
	.st4{fill:#B771C0;}
</style>
<rect class="st0" width="104.7" height="119.1"/>
<g>
	<path class="st0" d="M19.4,61.7c0,2.6-2.1,4.7-4.7,4.7s-4.8-2.1-4.8-4.7c0-2.6,2.1-4.7,4.7-4.7S19.4,59.1,19.4,61.7"/>
	<circle class="st1" cx="14.7" cy="61.7" r="4.7"/>
	<polygon class="st0" points="6.8,69.6 22.6,69.6 14.7,94.9 	"/>
	<polygon class="st1" points="6.8,69.6 22.6,69.6 14.7,94.9 	"/>
	<path class="st0" d="M56.7,77.5c0,2.6-2.1,4.7-4.7,4.7s-4.7-2.1-4.7-4.7s2.1-4.7,4.7-4.7S56.7,74.9,56.7,77.5"/>
	<circle class="st1" cx="52" cy="77.5" r="4.7"/>
	<polygon class="st0" points="44.1,85.4 59.9,85.4 52,110.7 	"/>
	<polygon class="st1" points="44.1,85.4 59.9,85.4 52,110.7 	"/>
	<path class="st0" d="M94.1,61.7c0,2.6-2.1,4.7-4.7,4.7s-4.7-2.1-4.7-4.7s2.1-4.7,4.7-4.7S94.1,59.1,94.1,61.7"/>
	<circle class="st1" cx="89.3" cy="61.7" r="4.7"/>
	<polygon class="st0" points="81.5,69.6 97.2,69.6 89.3,94.9 	"/>
	<polygon class="st1" points="81.5,69.6 97.2,69.6 89.3,94.9 	"/>
	<rect x="20" y="8" class="st2" width="56.7" height="34.3"/>
	<rect x="20" y="8" class="st1" width="56.7" height="34.3"/>
	<rect x="23.6" y="11.5" class="st2" width="56.7" height="34.3"/>
	<rect x="23.6" y="11.5" class="st1" width="56.7" height="34.3"/>
	<rect x="27.1" y="15.1" class="st0" width="56.7" height="34.3"/>
	<rect x="27.1" y="15.1" class="st1" width="56.7" height="34.3"/>
	<rect x="32.3" y="24.6" class="st1" width="28.2" height="19.6"/>
	<line class="st1" x1="32.3" y1="20" x2="35.9" y2="20"/>
	<line class="st1" x1="41" y1="20" x2="44.6" y2="20"/>
	<line class="st1" x1="77.1" y1="20" x2="78.9" y2="20"/>
	<path class="st3" d="M72,27.7l0.2,0.2c1,1.2,2.5,2.1,4.4,2.6l0.5,0.1v2c0,3.2-1.9,6.2-5,8.4c-3.2-2.2-5-5.3-5-8.4v-2l0.5-0.1
		c1.8-0.5,3.4-1.4,4.4-2.6V27.7z"/>
	<path class="st1" d="M72,27.7l0.2,0.2c1,1.2,2.5,2.1,4.4,2.6l0.5,0.1v2c0,3.2-1.9,6.2-5,8.4c-3.2-2.2-5-5.3-5-8.4v-2l0.5-0.1
		C69.4,30,71,29,72,27.9V27.7z"/>
	<line class="st1" x1="52" y1="49.4" x2="52" y2="67.5"/>
	<polyline class="st1" points="26.4,60.6 44.5,60.6 44.5,49.4 	"/>
	<polyline class="st1" points="77.6,60.6 59.5,60.6 59.5,49.4 	"/>
	<polyline class="st1" points="29.7,63.8 26.4,60.6 29.7,57.3 	"/>
	<polyline class="st1" points="74.3,57.3 77.6,60.6 74.3,63.8 	"/>
	<polyline class="st1" points="55.3,64.3 52,67.5 48.8,64.3 	"/>
	<rect x="32.3" y="24.6" class="st4" width="5.7" height="19.6"/>
	<rect x="32.3" y="24.6" class="st1" width="5.7" height="19.6"/>
	<rect x="32.3" y="24.6" class="st4" width="28.2" height="5"/>
	<rect x="32.3" y="24.6" class="st1" width="28.2" height="5"/>
	<line class="st1" x1="38" y1="24.6" x2="38" y2="44.3"/>
</g>
</svg>
